<svg width="28" height="29" viewBox="0 0 28 29" fill="none" xmlns="http://www.w3.org/2000/svg">
<path opacity="0.8" fill-rule="evenodd" clip-rule="evenodd" d="M0 14.1372C0 21.1273 4.89907 26.9393 11.3056 28.1174V17.9638H7.91389V14.0587H11.3056V10.9345C11.3056 7.41985 13.4913 5.46726 16.5815 5.46726C17.5613 5.46726 18.6165 5.62346 19.5963 5.77967V9.37245H17.8628C16.2046 9.37245 15.8278 10.2316 15.8278 11.325V14.0587H19.4456L18.8426 17.9638H15.8278V28.1174C22.2343 26.9393 27.1333 21.1273 27.1333 14.1372C27.1333 6.36175 21.0283 0 13.5667 0C6.105 0 0 6.36175 0 14.1372H0Z" fill="white"/>
</svg>
