<svg width="28" height="29" viewBox="0 0 28 29" fill="none" xmlns="http://www.w3.org/2000/svg">
<path d="M19.796 9.74003C19.6783 9.42408 19.498 9.13718 19.2668 8.89781C19.0355 8.65845 18.7585 8.47193 18.4535 8.35027C18.0335 8.18907 17.5899 8.10387 17.142 8.09839C16.3973 8.06324 16.174 8.05445 14.2874 8.05445C12.4008 8.05445 12.1775 8.06324 11.4327 8.09839C10.9844 8.1037 10.5403 8.18891 10.1199 8.35027C9.81497 8.47226 9.53811 8.65909 9.30712 8.8987C9.07613 9.13832 8.89614 9.42541 8.77874 9.7415C8.62319 10.1767 8.54097 10.6364 8.53567 11.1005C8.50176 11.8723 8.49328 12.1036 8.49328 14.0587C8.49328 16.0137 8.50176 16.2451 8.53567 17.0169C8.5408 17.4814 8.62303 17.9416 8.77874 18.3773C8.89647 18.6933 9.07675 18.9802 9.30798 19.2196C9.53921 19.4589 9.81625 19.6454 10.1213 19.7671C10.5413 19.9283 10.9849 20.0135 11.4327 20.019C12.1775 20.0541 12.4008 20.0614 14.2874 20.0614C16.174 20.0614 16.3973 20.0541 17.142 20.0175C17.5903 20.0127 18.0344 19.928 18.4549 19.7671C18.7598 19.6451 19.0366 19.4583 19.2676 19.2187C19.4986 18.979 19.6786 18.692 19.796 18.3759C19.9516 17.9406 20.0338 17.4809 20.0391 17.0169C20.073 16.2451 20.0801 16.0137 20.0801 14.0587C20.0801 12.1036 20.073 11.8723 20.0377 11.1005C20.033 10.636 19.9512 10.1758 19.796 9.74003ZM14.2874 17.8194C13.5696 17.8194 12.868 17.5988 12.2712 17.1856C11.6744 16.7724 11.2092 16.185 10.9345 15.4978C10.6599 14.8107 10.588 14.0545 10.728 13.325C10.8681 12.5955 11.2137 11.9254 11.7212 11.3995C12.2288 10.8735 12.8754 10.5154 13.5794 10.3702C14.2833 10.2251 15.013 10.2996 15.6762 10.5843C16.3393 10.8689 16.9061 11.3509 17.3048 11.9694C17.7036 12.5878 17.9165 13.3149 17.9165 14.0587C17.9165 15.0561 17.5341 16.0126 16.8535 16.7179C16.1729 17.4232 15.2499 17.8194 14.2874 17.8194ZM18.0592 11.0287C17.8915 11.0287 17.7275 10.9772 17.5881 10.8807C17.4487 10.7841 17.34 10.6469 17.2758 10.4863C17.2116 10.3258 17.1948 10.1491 17.2276 9.97866C17.2603 9.80821 17.341 9.65165 17.4596 9.52876C17.5782 9.40588 17.7293 9.3222 17.8938 9.28829C18.0582 9.25439 18.2287 9.27179 18.3837 9.33829C18.5386 9.4048 18.671 9.51742 18.7642 9.66191C18.8574 9.80641 18.9071 9.97629 18.9071 10.1501C18.9071 10.3831 18.8178 10.6066 18.6588 10.7714C18.4997 10.9362 18.2841 11.0287 18.0592 11.0287ZM16.6432 14.0587C16.6432 14.5415 16.505 15.0135 16.2461 15.415C15.9873 15.8164 15.6194 16.1293 15.1889 16.3141C14.7584 16.4989 14.2848 16.5472 13.8278 16.453C13.3708 16.3588 12.951 16.1263 12.6216 15.7849C12.2921 15.4435 12.0677 15.0085 11.9768 14.5349C11.8859 14.0614 11.9326 13.5705 12.1109 13.1245C12.2892 12.6784 12.5912 12.2971 12.9786 12.0289C13.366 11.7606 13.8214 11.6175 14.2874 11.6175C14.9122 11.6175 15.5114 11.8747 15.9532 12.3325C16.395 12.7903 16.6432 13.4112 16.6432 14.0587ZM14.2874 0C11.6041 0 8.98116 0.824527 6.75014 2.36932C4.51911 3.9141 2.78024 6.10977 1.75341 8.67866C0.726581 11.2475 0.457916 14.0743 0.981389 16.8014C1.50486 19.5285 2.79696 22.0335 4.69429 23.9997C6.59162 25.9658 9.00897 27.3048 11.6406 27.8472C14.2723 28.3897 17.0001 28.1113 19.4791 27.0472C21.9581 25.9831 24.0769 24.1812 25.5676 21.8693C27.0584 19.5573 27.854 16.8392 27.854 14.0587C27.854 10.3301 26.4247 6.75421 23.8805 4.11769C21.3362 1.48118 17.8855 0 14.2874 0V0ZM21.3109 17.0769C21.299 17.6845 21.1876 18.2857 20.9817 18.8547C20.8002 19.3411 20.5227 19.7827 20.1669 20.1514C19.8111 20.5201 19.3849 20.8077 18.9156 20.9958C18.3669 21.209 17.7873 21.3244 17.2014 21.337C16.4467 21.3721 16.2065 21.3809 14.2874 21.3809C12.3683 21.3809 12.128 21.3721 11.3734 21.337C10.7875 21.3244 10.2079 21.209 9.65916 20.9958C9.18987 20.8077 8.76367 20.5201 8.40788 20.1514C8.05209 19.7827 7.77456 19.3411 7.59307 18.8547C7.38726 18.2861 7.27592 17.6855 7.2638 17.0784C7.22988 16.2964 7.2214 16.0474 7.2214 14.0587C7.2214 12.07 7.22988 11.821 7.2638 11.039C7.27547 10.4319 7.38633 9.8313 7.59166 9.26262C7.77314 8.7759 8.05081 8.33387 8.40686 7.96491C8.76291 7.59594 9.18947 7.3082 9.65916 7.12014C10.2079 6.90736 10.7875 6.79248 11.3734 6.78039C12.128 6.74524 12.3683 6.73645 14.2874 6.73645C16.2065 6.73645 16.4467 6.74524 17.2014 6.78039C17.7872 6.79248 18.3668 6.90736 18.9156 7.12014C19.385 7.30837 19.8113 7.59619 20.1671 7.96515C20.5229 8.3341 20.8004 8.77604 20.9817 9.26262C21.1875 9.83122 21.2988 10.4318 21.3109 11.039C21.3449 11.821 21.3533 12.07 21.3533 14.0587C21.3533 16.0474 21.3449 16.2964 21.3109 17.0784V17.0769Z" fill="white"/>
</svg>
