<svg width="39" height="31" viewBox="0 0 39 31" fill="none" xmlns="http://www.w3.org/2000/svg">
<path d="M1.8924 0.870361C0.847179 0.870361 0 1.74826 0 2.83139C0 3.91452 0.847179 4.79243 1.8924 4.79243H36.9049C37.9502 4.79243 38.7973 3.91452 38.7973 2.83139C38.7973 1.74826 37.9502 0.870361 36.9049 0.870361H1.8924ZM1.8924 13.6182C0.847179 13.6182 0 14.4961 0 15.5792C0 16.6624 0.847179 17.5403 1.8924 17.5403H36.9049C37.9502 17.5403 38.7973 16.6624 38.7973 15.5792C38.7973 14.4961 37.9502 13.6182 36.9049 13.6182H1.8924ZM1.8924 26.3661C0.847179 26.3661 0 27.244 0 28.3271C0 29.4102 0.847179 30.2881 1.8924 30.2881H36.9049C37.9502 30.2881 38.7973 29.4102 38.7973 28.3271C38.7973 27.244 37.9502 26.3661 36.9049 26.3661H1.8924Z" fill="white"/>
</svg>
