<svg width="28" height="29" viewBox="0 0 28 29" fill="none" xmlns="http://www.w3.org/2000/svg">
<path opacity="0.95" d="M16.2734 13.8141L13.0994 12.2794C12.8224 12.1461 12.5949 12.2955 12.5949 12.6133V15.5041C12.5949 15.8219 12.8224 15.9713 13.0994 15.838L16.272 14.3032C16.5504 14.1685 16.5504 13.9489 16.2734 13.8141ZM14.0081 0C6.51532 0 0.441406 6.29419 0.441406 14.0587C0.441406 21.8232 6.51532 28.1174 14.0081 28.1174C21.5008 28.1174 27.5747 21.8232 27.5747 14.0587C27.5747 6.29419 21.5008 0 14.0081 0ZM14.0081 19.77C7.06364 19.77 6.9421 19.1213 6.9421 14.0587C6.9421 8.99609 7.06364 8.34734 14.0081 8.34734C20.9525 8.34734 21.074 8.99609 21.074 14.0587C21.074 19.1213 20.9525 19.77 14.0081 19.77Z" fill="white"/>
</svg>
